<svg width="18" height="18" viewBox="0 0 18 18" fill="none" xmlns="http://www.w3.org/2000/svg">
<path d="M15 7.875C14.8011 7.875 14.6103 7.95402 14.4697 8.09467C14.329 8.23532 14.25 8.42609 14.25 8.625V13.875C14.25 14.0739 14.171 14.2647 14.0303 14.4053C13.8897 14.546 13.6989 14.625 13.5 14.625H3C2.80109 14.625 2.61032 14.546 2.46967 14.4053C2.32902 14.2647 2.25 14.0739 2.25 13.875V7.875C2.25 7.67609 2.32902 7.48532 2.46967 7.34467C2.61032 7.20402 2.80109 7.125 3 7.125H4.5C4.66355 7.13354 4.8254 7.0883 4.96083 6.99621C5.09625 6.90412 5.19782 6.77024 5.25 6.615L5.655 5.385C5.70531 5.23603 5.80117 5.10665 5.92903 5.01513C6.05688 4.92361 6.21027 4.87459 6.3675 4.875H10.5C10.6989 4.875 10.8897 4.79598 11.0303 4.65533C11.171 4.51468 11.25 4.32391 11.25 4.125C11.25 3.92609 11.171 3.73532 11.0303 3.59467C10.8897 3.45402 10.6989 3.375 10.5 3.375H6.33C5.85866 3.37588 5.3995 3.52476 5.01732 3.80063C4.63515 4.0765 4.34926 4.46542 4.2 4.9125L3.96 5.6625H3C2.40326 5.6625 1.83097 5.89955 1.40901 6.32151C0.987053 6.74347 0.75 7.31576 0.75 7.9125V13.9125C0.75 14.5092 0.987053 15.0815 1.40901 15.5035C1.83097 15.9254 2.40326 16.1625 3 16.1625H13.5C14.0967 16.1625 14.669 15.9254 15.091 15.5035C15.5129 15.0815 15.75 14.5092 15.75 13.9125V8.6625C15.7551 8.5609 15.7395 8.45932 15.704 8.36396C15.6686 8.26859 15.6142 8.18142 15.544 8.10776C15.4739 8.03409 15.3895 7.97547 15.2959 7.93546C15.2024 7.89544 15.1017 7.87487 15 7.875ZM8.25 7.125C7.65666 7.125 7.07664 7.30095 6.58329 7.63059C6.08994 7.96024 5.70542 8.42877 5.47836 8.97695C5.2513 9.52513 5.19189 10.1283 5.30764 10.7103C5.4234 11.2922 5.70912 11.8268 6.12868 12.2463C6.54824 12.6659 7.08279 12.9516 7.66473 13.0674C8.24667 13.1831 8.84987 13.1237 9.39805 12.8966C9.94623 12.6696 10.4148 12.2851 10.7444 11.7917C11.0741 11.2984 11.25 10.7183 11.25 10.125C11.25 9.32935 10.9339 8.56629 10.3713 8.00368C9.80871 7.44107 9.04565 7.125 8.25 7.125ZM8.25 11.625C7.95333 11.625 7.66332 11.537 7.41665 11.3722C7.16997 11.2074 6.97771 10.9731 6.86418 10.699C6.75065 10.4249 6.72094 10.1233 6.77882 9.83236C6.8367 9.54139 6.97956 9.27412 7.18934 9.06434C7.39912 8.85456 7.66639 8.7117 7.95736 8.65382C8.24834 8.59594 8.54994 8.62565 8.82403 8.73918C9.09811 8.85271 9.33238 9.04497 9.4972 9.29164C9.66203 9.53832 9.75 9.82833 9.75 10.125C9.75 10.5228 9.59196 10.9044 9.31066 11.1857C9.02936 11.467 8.64782 11.625 8.25 11.625ZM16.5 3.375H15.75V2.625C15.75 2.42609 15.671 2.23532 15.5303 2.09467C15.3897 1.95402 15.1989 1.875 15 1.875C14.8011 1.875 14.6103 1.95402 14.4697 2.09467C14.329 2.23532 14.25 2.42609 14.25 2.625V3.375H13.5C13.3011 3.375 13.1103 3.45402 12.9697 3.59467C12.829 3.73532 12.75 3.92609 12.75 4.125C12.75 4.32391 12.829 4.51468 12.9697 4.65533C13.1103 4.79598 13.3011 4.875 13.5 4.875H14.25V5.625C14.25 5.82391 14.329 6.01468 14.4697 6.15533C14.6103 6.29598 14.8011 6.375 15 6.375C15.1989 6.375 15.3897 6.29598 15.5303 6.15533C15.671 6.01468 15.75 5.82391 15.75 5.625V4.875H16.5C16.6989 4.875 16.8897 4.79598 17.0303 4.65533C17.171 4.51468 17.25 4.32391 17.25 4.125C17.25 3.92609 17.171 3.73532 17.0303 3.59467C16.8897 3.45402 16.6989 3.375 16.5 3.375Z" fill="#1677FF"/>
</svg>
