<svg width="24" height="24" viewBox="0 0 24 24" fill="none" xmlns="http://www.w3.org/2000/svg">
<rect width="24" height="24" rx="4" fill="#EF4444"/>
<path d="M12.975 12.165C13.3752 11.8186 13.6962 11.3902 13.9162 10.9088C14.1361 10.4274 14.25 9.90428 14.25 9.375C14.25 8.38044 13.8549 7.42661 13.1517 6.72335C12.4484 6.02009 11.4946 5.625 10.5 5.625C9.50544 5.625 8.55161 6.02009 7.84835 6.72335C7.14509 7.42661 6.75 8.38044 6.75 9.375C6.74999 9.90428 6.86385 10.4274 7.08384 10.9088C7.30384 11.3902 7.62482 11.8186 8.025 12.165C6.9751 12.6404 6.08435 13.4081 5.45924 14.3764C4.83412 15.3447 4.5011 16.4725 4.5 17.625C4.5 17.8239 4.57902 18.0147 4.71967 18.1553C4.86032 18.296 5.05109 18.375 5.25 18.375C5.44891 18.375 5.63968 18.296 5.78033 18.1553C5.92098 18.0147 6 17.8239 6 17.625C6 16.4315 6.47411 15.2869 7.31802 14.443C8.16193 13.5991 9.30653 13.125 10.5 13.125C11.6935 13.125 12.8381 13.5991 13.682 14.443C14.5259 15.2869 15 16.4315 15 17.625C15 17.8239 15.079 18.0147 15.2197 18.1553C15.3603 18.296 15.5511 18.375 15.75 18.375C15.9489 18.375 16.1397 18.296 16.2803 18.1553C16.421 18.0147 16.5 17.8239 16.5 17.625C16.4989 16.4725 16.1659 15.3447 15.5408 14.3764C14.9157 13.4081 14.0249 12.6404 12.975 12.165ZM10.5 11.625C10.055 11.625 9.61998 11.493 9.24997 11.2458C8.87996 10.9986 8.59157 10.6472 8.42127 10.236C8.25097 9.8249 8.20642 9.3725 8.29323 8.93605C8.38005 8.49959 8.59434 8.09868 8.90901 7.78401C9.22368 7.46934 9.62459 7.25505 10.061 7.16823C10.4975 7.08142 10.9499 7.12597 11.361 7.29627C11.7722 7.46657 12.1236 7.75496 12.3708 8.12497C12.618 8.49498 12.75 8.92999 12.75 9.375C12.75 9.97174 12.5129 10.544 12.091 10.966C11.669 11.3879 11.0967 11.625 10.5 11.625ZM18.6825 12L19.2825 11.4075C19.3524 11.3376 19.4079 11.2546 19.4457 11.1632C19.4836 11.0718 19.5031 10.9739 19.5031 10.875C19.5031 10.7761 19.4836 10.6782 19.4457 10.5868C19.4079 10.4954 19.3524 10.4124 19.2825 10.3425C19.2126 10.2726 19.1296 10.2171 19.0382 10.1793C18.9468 10.1414 18.8489 10.1219 18.75 10.1219C18.6511 10.1219 18.5532 10.1414 18.4618 10.1793C18.3704 10.2171 18.2874 10.2726 18.2175 10.3425L17.625 10.9425L17.0325 10.3425C16.9626 10.2726 16.8796 10.2171 16.7882 10.1793C16.6968 10.1414 16.5989 10.1219 16.5 10.1219C16.3003 10.1219 16.1087 10.2013 15.9675 10.3425C15.8976 10.4124 15.8421 10.4954 15.8043 10.5868C15.7664 10.6782 15.7469 10.7761 15.7469 10.875C15.7469 11.0747 15.8263 11.2663 15.9675 11.4075L16.5675 12L15.9675 12.5925C15.8972 12.6622 15.8414 12.7452 15.8033 12.8366C15.7653 12.928 15.7457 13.026 15.7457 13.125C15.7457 13.224 15.7653 13.322 15.8033 13.4134C15.8414 13.5048 15.8972 13.5878 15.9675 13.6575C16.0372 13.7278 16.1202 13.7836 16.2116 13.8217C16.303 13.8597 16.401 13.8793 16.5 13.8793C16.599 13.8793 16.697 13.8597 16.7884 13.8217C16.8798 13.7836 16.9628 13.7278 17.0325 13.6575L17.625 13.0575L18.2175 13.6575C18.2872 13.7278 18.3702 13.7836 18.4616 13.8217C18.553 13.8597 18.651 13.8793 18.75 13.8793C18.849 13.8793 18.947 13.8597 19.0384 13.8217C19.1298 13.7836 19.2128 13.7278 19.2825 13.6575C19.3528 13.5878 19.4086 13.5048 19.4467 13.4134C19.4847 13.322 19.5043 13.224 19.5043 13.125C19.5043 13.026 19.4847 12.928 19.4467 12.8366C19.4086 12.7452 19.3528 12.6622 19.2825 12.5925L18.6825 12Z" fill="white"/>
</svg>
