<svg width="24" height="24" viewBox="0 0 24 24" fill="none" xmlns="http://www.w3.org/2000/svg">
<rect width="24" height="24" rx="4" fill="#5DA853"/>
<path d="M17.25 7.875H15V7.125C15 6.52826 14.7629 5.95597 14.341 5.53401C13.919 5.11205 13.3467 4.875 12.75 4.875H11.25C10.6533 4.875 10.081 5.11205 9.65901 5.53401C9.23705 5.95597 9 6.52826 9 7.125V7.875H6.75C6.15326 7.875 5.58097 8.11205 5.15901 8.53401C4.73705 8.95597 4.5 9.52826 4.5 10.125V16.875C4.5 17.4717 4.73705 18.044 5.15901 18.466C5.58097 18.8879 6.15326 19.125 6.75 19.125H17.25C17.8467 19.125 18.419 18.8879 18.841 18.466C19.2629 18.044 19.5 17.4717 19.5 16.875V10.125C19.5 9.52826 19.2629 8.95597 18.841 8.53401C18.419 8.11205 17.8467 7.875 17.25 7.875ZM10.5 7.125C10.5 6.92609 10.579 6.73532 10.7197 6.59467C10.8603 6.45402 11.0511 6.375 11.25 6.375H12.75C12.9489 6.375 13.1397 6.45402 13.2803 6.59467C13.421 6.73532 13.5 6.92609 13.5 7.125V7.875H10.5V7.125ZM18 16.875C18 17.0739 17.921 17.2647 17.7803 17.4053C17.6397 17.546 17.4489 17.625 17.25 17.625H6.75C6.55109 17.625 6.36032 17.546 6.21967 17.4053C6.07902 17.2647 6 17.0739 6 16.875V13.0875H8.25V13.875C8.25 14.0739 8.32902 14.2647 8.46967 14.4053C8.61032 14.546 8.80109 14.625 9 14.625C9.19891 14.625 9.38968 14.546 9.53033 14.4053C9.67098 14.2647 9.75 14.0739 9.75 13.875V13.0875H14.25V13.875C14.25 14.0739 14.329 14.2647 14.4697 14.4053C14.6103 14.546 14.8011 14.625 15 14.625C15.1989 14.625 15.3897 14.546 15.5303 14.4053C15.671 14.2647 15.75 14.0739 15.75 13.875V13.0875H18V16.875ZM18 11.625H6V10.125C6 9.92609 6.07902 9.73532 6.21967 9.59467C6.36032 9.45402 6.55109 9.375 6.75 9.375H17.25C17.4489 9.375 17.6397 9.45402 17.7803 9.59467C17.921 9.73532 18 9.92609 18 10.125V11.625Z" fill="white"/>
</svg>
