<svg width="24" height="24" viewBox="0 0 24 24" fill="none" xmlns="http://www.w3.org/2000/svg">
<rect width="24" height="24" rx="4" fill="#FF6B35"/>
<path d="M15 4.5H9C8.40326 4.5 7.83097 4.73705 7.40901 5.15901C6.98705 5.58097 6.75 6.15326 6.75 6.75V17.25C6.75 17.8467 6.98705 18.419 7.40901 18.841C7.83097 19.2629 8.40326 19.5 9 19.5H15C15.5967 19.5 16.169 19.2629 16.591 18.841C17.0129 18.419 17.25 17.8467 17.25 17.25V6.75C17.25 6.15326 17.0129 5.58097 16.591 5.15901C16.169 4.73705 15.5967 4.5 15 4.5ZM15.75 17.25C15.75 17.4489 15.671 17.6397 15.5303 17.7803C15.3897 17.921 15.1989 18 15 18H9C8.80109 18 8.61032 17.921 8.46967 17.7803C8.32902 17.6397 8.25 17.4489 8.25 17.25V16.5H15.75V17.25ZM15.75 15H8.25V6.75C8.25 6.55109 8.32902 6.36032 8.46967 6.21967C8.61032 6.07902 8.80109 6 9 6H15C15.1989 6 15.3897 6.07902 15.5303 6.21967C15.671 6.36032 15.75 6.55109 15.75 6.75V15Z" fill="white"/>
</svg>
