<svg width="24" height="24" viewBox="0 0 24 24" fill="none" xmlns="http://www.w3.org/2000/svg">
<rect width="24" height="24" rx="4" fill="#1677FF"/>
<path d="M12.5325 15.2175L12.42 15.1275C12.3782 15.0991 12.3328 15.0764 12.285 15.06L12.15 15C12.0284 14.9746 11.9023 14.9798 11.7832 15.0151C11.6641 15.0505 11.5556 15.1148 11.4675 15.2025C11.4013 15.2754 11.348 15.3591 11.31 15.45C11.2532 15.5867 11.2382 15.737 11.2667 15.8822C11.2952 16.0274 11.366 16.1609 11.4703 16.266C11.5745 16.371 11.7075 16.4429 11.8524 16.4725C11.9974 16.5021 12.1479 16.4882 12.285 16.4325C12.3746 16.389 12.4579 16.3335 12.5325 16.2675C12.6366 16.162 12.7071 16.0281 12.7351 15.8826C12.7631 15.7371 12.7474 15.5866 12.69 15.45C12.6526 15.3633 12.5992 15.2844 12.5325 15.2175ZM15 4.5H9C8.40326 4.5 7.83097 4.73705 7.40901 5.15901C6.98705 5.58097 6.75 6.15326 6.75 6.75V17.25C6.75 17.8467 6.98705 18.419 7.40901 18.841C7.83097 19.2629 8.40326 19.5 9 19.5H15C15.5967 19.5 16.169 19.2629 16.591 18.841C17.0129 18.419 17.25 17.8467 17.25 17.25V6.75C17.25 6.15326 17.0129 5.58097 16.591 5.15901C16.169 4.73705 15.5967 4.5 15 4.5ZM15.75 17.25C15.75 17.4489 15.671 17.6397 15.5303 17.7803C15.3897 17.921 15.1989 18 15 18H9C8.80109 18 8.61032 17.921 8.46967 17.7803C8.32902 17.6397 8.25 17.4489 8.25 17.25V6.75C8.25 6.55109 8.32902 6.36032 8.46967 6.21967C8.61032 6.07902 8.80109 6 9 6H15C15.1989 6 15.3897 6.07902 15.5303 6.21967C15.671 6.36032 15.75 6.55109 15.75 6.75V17.25Z" fill="white"/>
</svg>
