<svg width="24" height="24" viewBox="0 0 24 24" fill="none" xmlns="http://www.w3.org/2000/svg">
<rect width="24" height="24" rx="4" fill="#1677FF"/>
<path d="M17.25 7.12502H12.54L12.3 6.37502C12.1444 5.93494 11.8558 5.55414 11.4742 5.28539C11.0925 5.01663 10.6368 4.87322 10.17 4.87502H6.75C6.15326 4.87502 5.58097 5.11207 5.15901 5.53403C4.73705 5.95598 4.5 6.52828 4.5 7.12502V16.875C4.5 17.4718 4.73705 18.0441 5.15901 18.466C5.58097 18.888 6.15326 19.125 6.75 19.125H17.25C17.8467 19.125 18.419 18.888 18.841 18.466C19.2629 18.0441 19.5 17.4718 19.5 16.875V9.37502C19.5 8.77828 19.2629 8.20598 18.841 7.78403C18.419 7.36207 17.8467 7.12502 17.25 7.12502ZM18 16.875C18 17.0739 17.921 17.2647 17.7803 17.4053C17.6397 17.546 17.4489 17.625 17.25 17.625H6.75C6.55109 17.625 6.36032 17.546 6.21967 17.4053C6.07902 17.2647 6 17.0739 6 16.875V7.12502C6 6.9261 6.07902 6.73534 6.21967 6.59469C6.36032 6.45403 6.55109 6.37502 6.75 6.37502H10.17C10.3272 6.37461 10.4806 6.42363 10.6085 6.51515C10.7363 6.60667 10.8322 6.73605 10.8825 6.88502L11.2875 8.11502C11.3378 8.26398 11.4337 8.39337 11.5615 8.48489C11.6894 8.5764 11.8428 8.62542 12 8.62502H17.25C17.4489 8.62502 17.6397 8.70403 17.7803 8.84469C17.921 8.98534 18 9.1761 18 9.37502V16.875Z" fill="white"/>
</svg>
