<svg width="24" height="24" viewBox="0 0 24 24" fill="none" xmlns="http://www.w3.org/2000/svg">
<rect width="24" height="24" rx="4" fill="#F93939"/>
<path d="M16.5 12.885V10.5C16.4989 9.43734 16.1218 8.40935 15.4355 7.59808C14.7491 6.78681 13.7978 6.24461 12.75 6.0675V5.25C12.75 5.05109 12.671 4.86032 12.5303 4.71967C12.3897 4.57902 12.1989 4.5 12 4.5C11.8011 4.5 11.6103 4.57902 11.4697 4.71967C11.329 4.86032 11.25 5.05109 11.25 5.25V6.0675C10.2022 6.24461 9.25089 6.78681 8.56454 7.59808C7.87818 8.40935 7.50108 9.43734 7.5 10.5V12.885C7.06234 13.0397 6.68325 13.3261 6.4147 13.7047C6.14616 14.0833 6.0013 14.5358 6 15V16.5C6 16.6989 6.07902 16.8897 6.21967 17.0303C6.36032 17.171 6.55109 17.25 6.75 17.25H9.105C9.27771 17.8855 9.65475 18.4466 10.1779 18.8465C10.7011 19.2465 11.3414 19.4632 12 19.4632C12.6586 19.4632 13.2989 19.2465 13.8221 18.8465C14.3452 18.4466 14.7223 17.8855 14.895 17.25H17.25C17.4489 17.25 17.6397 17.171 17.7803 17.0303C17.921 16.8897 18 16.6989 18 16.5V15C17.9987 14.5358 17.8538 14.0833 17.5853 13.7047C17.3168 13.3261 16.9377 13.0397 16.5 12.885ZM9 10.5C9 9.70435 9.31607 8.94129 9.87868 8.37868C10.4413 7.81607 11.2044 7.5 12 7.5C12.7956 7.5 13.5587 7.81607 14.1213 8.37868C14.6839 8.94129 15 9.70435 15 10.5V12.75H9V10.5ZM12 18C11.7382 17.9984 11.4814 17.9284 11.2551 17.7968C11.0288 17.6652 10.8409 17.4767 10.71 17.25H13.29C13.1591 17.4767 12.9712 17.6652 12.7449 17.7968C12.5186 17.9284 12.2618 17.9984 12 18ZM16.5 15.75H7.5V15C7.5 14.8011 7.57902 14.6103 7.71967 14.4697C7.86032 14.329 8.05109 14.25 8.25 14.25H15.75C15.9489 14.25 16.1397 14.329 16.2803 14.4697C16.421 14.6103 16.5 14.8011 16.5 15V15.75Z" fill="white"/>
</svg>
