<svg width="24" height="24" viewBox="0 0 24 24" fill="none" xmlns="http://www.w3.org/2000/svg">
<rect width="24" height="24" rx="4" fill="#FFA216"/>
<path d="M12 9C11.6022 9 11.2206 9.15804 10.9393 9.43934C10.658 9.72064 10.5 10.1022 10.5 10.5C10.5016 10.7618 10.5716 11.0186 10.7032 11.2449C10.8348 11.4712 11.0233 11.6591 11.25 11.79V14.25C11.25 14.4489 11.329 14.6397 11.4697 14.7803C11.6103 14.921 11.8011 15 12 15C12.1989 15 12.3897 14.921 12.5303 14.7803C12.671 14.6397 12.75 14.4489 12.75 14.25V11.79C12.9767 11.6591 13.1652 11.4712 13.2968 11.2449C13.4284 11.0186 13.4984 10.7618 13.5 10.5C13.5 10.1022 13.342 9.72064 13.0607 9.43934C12.7794 9.15804 12.3978 9 12 9ZM12 4.5C10.5166 4.5 9.0666 4.93987 7.83323 5.76398C6.59986 6.58809 5.63856 7.75943 5.07091 9.12987C4.50325 10.5003 4.35472 12.0083 4.64411 13.4632C4.9335 14.918 5.64781 16.2544 6.6967 17.3033C7.7456 18.3522 9.08197 19.0665 10.5368 19.3559C11.9917 19.6453 13.4997 19.4968 14.8701 18.9291C16.2406 18.3614 17.4119 17.4001 18.236 16.1668C19.0601 14.9334 19.5 13.4834 19.5 12C19.5 11.0151 19.306 10.0398 18.9291 9.12987C18.5522 8.21993 17.9997 7.39314 17.3033 6.6967C16.6069 6.00026 15.7801 5.44781 14.8701 5.0709C13.9602 4.69399 12.9849 4.5 12 4.5ZM12 18C10.8133 18 9.65328 17.6481 8.66658 16.9888C7.67989 16.3295 6.91085 15.3925 6.45673 14.2961C6.0026 13.1997 5.88378 11.9933 6.11529 10.8295C6.3468 9.66557 6.91825 8.59647 7.75736 7.75736C8.59648 6.91824 9.66558 6.3468 10.8295 6.11529C11.9933 5.88378 13.1997 6.0026 14.2961 6.45672C15.3925 6.91085 16.3295 7.67988 16.9888 8.66658C17.6481 9.65327 18 10.8133 18 12C18 13.5913 17.3679 15.1174 16.2426 16.2426C15.1174 17.3679 13.5913 18 12 18Z" fill="white"/>
</svg>
