<svg width="24" height="24" viewBox="0 0 24 24" fill="none" xmlns="http://www.w3.org/2000/svg">
<rect width="24" height="24" rx="4" fill="#1677FF"/>
<path d="M12.0014 4.5C10.5467 4.50276 9.12429 4.92848 7.9073 5.7253C6.69031 6.52212 5.7313 7.65566 5.14709 8.98783C4.56287 10.32 4.37866 11.7933 4.6169 13.2283C4.85514 14.6633 5.50554 15.9981 6.48888 17.07C7.1912 17.8313 8.04359 18.4389 8.99233 18.8544C9.94108 19.27 10.9656 19.4845 12.0014 19.4845C13.0371 19.4845 14.0617 19.27 15.0104 18.8544C15.9592 18.4389 16.8116 17.8313 17.5139 17.07C18.4972 15.9981 19.1476 14.6633 19.3859 13.2283C19.6241 11.7933 19.4399 10.32 18.8557 8.98783C18.2715 7.65566 17.3124 6.52212 16.0955 5.7253C14.8785 4.92848 13.456 4.50276 12.0014 4.5ZM12.0014 18C10.4477 17.9976 8.95557 17.3927 7.83888 16.3125C8.17791 15.4872 8.75465 14.7812 9.49582 14.2844C10.237 13.7876 11.1091 13.5224 12.0014 13.5224C12.8936 13.5224 13.7658 13.7876 14.5069 14.2844C15.2481 14.7812 15.8248 15.4872 16.1639 16.3125C15.0472 17.3927 13.555 17.9976 12.0014 18ZM10.5014 10.5C10.5014 10.2033 10.5894 9.91332 10.7542 9.66665C10.919 9.41997 11.1533 9.22771 11.4274 9.11418C11.7014 9.00065 12.003 8.97094 12.294 9.02882C12.585 9.0867 12.8523 9.22956 13.062 9.43934C13.2718 9.64912 13.4147 9.91639 13.4726 10.2074C13.5304 10.4983 13.5007 10.7999 13.3872 11.074C13.2737 11.3481 13.0814 11.5824 12.8347 11.7472C12.5881 11.912 12.2981 12 12.0014 12C11.6036 12 11.222 11.842 10.9407 11.5607C10.6594 11.2794 10.5014 10.8978 10.5014 10.5ZM17.1839 15C16.5138 13.8538 15.4824 12.9623 14.2514 12.465C14.6333 12.032 14.8821 11.498 14.968 10.9271C15.0539 10.3562 14.9732 9.77258 14.7357 9.24637C14.4982 8.72016 14.1138 8.27367 13.6288 7.96047C13.1438 7.64728 12.5787 7.48069 12.0014 7.48069C11.424 7.48069 10.859 7.64728 10.3739 7.96047C9.88894 8.27367 9.50461 8.72016 9.26707 9.24637C9.02953 9.77258 8.94887 10.3562 9.03478 10.9271C9.12068 11.498 9.3695 12.032 9.75138 12.465C8.52033 12.9623 7.48898 13.8538 6.81888 15C6.28484 14.0903 6.00267 13.0548 6.00138 12C6.00138 10.4087 6.63352 8.88258 7.75874 7.75736C8.88396 6.63214 10.4101 6 12.0014 6C13.5927 6 15.1188 6.63214 16.244 7.75736C17.3692 8.88258 18.0014 10.4087 18.0014 12C18.0001 13.0548 17.7179 14.0903 17.1839 15Z" fill="white"/>
</svg>
