<svg width="24" height="24" viewBox="0 0 24 24" fill="none" xmlns="http://www.w3.org/2000/svg">
<rect width="24" height="24" rx="4" fill="#F0F1F3"/>
<path d="M12 12.75C11.7717 12.7473 11.548 12.8147 11.3591 12.943C11.1702 13.0713 11.0251 13.2544 10.9434 13.4676C10.8617 13.6808 10.8473 13.914 10.9021 14.1357C10.9569 14.3573 11.0783 14.5569 11.25 14.7075V15.75C11.25 15.9489 11.329 16.1397 11.4697 16.2803C11.6103 16.421 11.8011 16.5 12 16.5C12.1989 16.5 12.3897 16.421 12.5303 16.2803C12.671 16.1397 12.75 15.9489 12.75 15.75V14.7075C12.9217 14.5569 13.0431 14.3573 13.0979 14.1357C13.1527 13.914 13.1383 13.6808 13.0566 13.4676C12.9749 13.2544 12.8298 13.0713 12.6409 12.943C12.452 12.8147 12.2283 12.7473 12 12.75ZM15.75 9.75V8.25C15.75 7.25544 15.3549 6.30161 14.6517 5.59835C13.9484 4.89509 12.9946 4.5 12 4.5C11.0054 4.5 10.0516 4.89509 9.34835 5.59835C8.64509 6.30161 8.25 7.25544 8.25 8.25V9.75C7.65326 9.75 7.08097 9.98705 6.65901 10.409C6.23705 10.831 6 11.4033 6 12V17.25C6 17.8467 6.23705 18.419 6.65901 18.841C7.08097 19.2629 7.65326 19.5 8.25 19.5H15.75C16.3467 19.5 16.919 19.2629 17.341 18.841C17.7629 18.419 18 17.8467 18 17.25V12C18 11.4033 17.7629 10.831 17.341 10.409C16.919 9.98705 16.3467 9.75 15.75 9.75ZM9.75 8.25C9.75 7.65326 9.98705 7.08097 10.409 6.65901C10.831 6.23705 11.4033 6 12 6C12.5967 6 13.169 6.23705 13.591 6.65901C14.0129 7.08097 14.25 7.65326 14.25 8.25V9.75H9.75V8.25ZM16.5 17.25C16.5 17.4489 16.421 17.6397 16.2803 17.7803C16.1397 17.921 15.9489 18 15.75 18H8.25C8.05109 18 7.86032 17.921 7.71967 17.7803C7.57902 17.6397 7.5 17.4489 7.5 17.25V12C7.5 11.8011 7.57902 11.6103 7.71967 11.4697C7.86032 11.329 8.05109 11.25 8.25 11.25H15.75C15.9489 11.25 16.1397 11.329 16.2803 11.4697C16.421 11.6103 16.5 11.8011 16.5 12V17.25Z" fill="#62697B"/>
</svg>
