<svg width="24" height="24" viewBox="0 0 24 24" fill="none" xmlns="http://www.w3.org/2000/svg">
<rect width="24" height="24" rx="4" fill="#1677FF"/>
<rect width="24" height="24" rx="4" fill="url(#paint0_linear_8896_50414)"/>
<path d="M9.75 14.25C9.60166 14.25 9.45666 14.294 9.33332 14.3764C9.20999 14.4588 9.11386 14.5759 9.05709 14.713C9.00032 14.85 8.98547 15.0008 9.01441 15.1463C9.04335 15.2918 9.11478 15.4254 9.21967 15.5303C9.32456 15.6352 9.4582 15.7066 9.60368 15.7356C9.74917 15.7645 9.89997 15.7497 10.037 15.6929C10.1741 15.6361 10.2912 15.54 10.3736 15.4167C10.456 15.2933 10.5 15.1483 10.5 15C10.5 14.8011 10.421 14.6103 10.2803 14.4697C10.1397 14.329 9.94891 14.25 9.75 14.25ZM4.5 13.5C4.30109 13.5 4.11032 13.579 3.96967 13.7197C3.82902 13.8603 3.75 14.0511 3.75 14.25V15.75C3.75 15.9489 3.82902 16.1397 3.96967 16.2803C4.11032 16.421 4.30109 16.5 4.5 16.5C4.69891 16.5 4.88968 16.421 5.03033 16.2803C5.17098 16.1397 5.25 15.9489 5.25 15.75V14.25C5.25 14.0511 5.17098 13.8603 5.03033 13.7197C4.88968 13.579 4.69891 13.5 4.5 13.5ZM19.5 13.5C19.3011 13.5 19.1103 13.579 18.9697 13.7197C18.829 13.8603 18.75 14.0511 18.75 14.25V15.75C18.75 15.9489 18.829 16.1397 18.9697 16.2803C19.1103 16.421 19.3011 16.5 19.5 16.5C19.6989 16.5 19.8897 16.421 20.0303 16.2803C20.171 16.1397 20.25 15.9489 20.25 15.75V14.25C20.25 14.0511 20.171 13.8603 20.0303 13.7197C19.8897 13.579 19.6989 13.5 19.5 13.5ZM15.75 8.25H12.75V7.29C12.9767 7.15912 13.1652 6.97118 13.2968 6.74488C13.4284 6.51857 13.4984 6.26177 13.5 6C13.5 5.60218 13.342 5.22064 13.0607 4.93934C12.7794 4.65804 12.3978 4.5 12 4.5C11.6022 4.5 11.2206 4.65804 10.9393 4.93934C10.658 5.22064 10.5 5.60218 10.5 6C10.5016 6.26177 10.5716 6.51857 10.7032 6.74488C10.8348 6.97118 11.0233 7.15912 11.25 7.29V8.25H8.25C7.65326 8.25 7.08097 8.48705 6.65901 8.90901C6.23705 9.33097 6 9.90326 6 10.5V17.25C6 17.8467 6.23705 18.419 6.65901 18.841C7.08097 19.2629 7.65326 19.5 8.25 19.5H15.75C16.3467 19.5 16.919 19.2629 17.341 18.841C17.7629 18.419 18 17.8467 18 17.25V10.5C18 9.90326 17.7629 9.33097 17.341 8.90901C16.919 8.48705 16.3467 8.25 15.75 8.25ZM13.29 9.75L12.915 11.25H11.085L10.71 9.75H13.29ZM16.5 17.25C16.5 17.4489 16.421 17.6397 16.2803 17.7803C16.1397 17.921 15.9489 18 15.75 18H8.25C8.05109 18 7.86032 17.921 7.71967 17.7803C7.57902 17.6397 7.5 17.4489 7.5 17.25V10.5C7.5 10.3011 7.57902 10.1103 7.71967 9.96967C7.86032 9.82902 8.05109 9.75 8.25 9.75H9.165L9.75 12.18C9.79106 12.3464 9.88788 12.4937 10.0243 12.5974C10.1608 12.7011 10.3287 12.755 10.5 12.75H13.5C13.6713 12.755 13.8392 12.7011 13.9757 12.5974C14.1121 12.4937 14.2089 12.3464 14.25 12.18L14.835 9.75H15.75C15.9489 9.75 16.1397 9.82902 16.2803 9.96967C16.421 10.1103 16.5 10.3011 16.5 10.5V17.25ZM14.25 14.25C14.1017 14.25 13.9567 14.294 13.8333 14.3764C13.71 14.4588 13.6139 14.5759 13.5571 14.713C13.5003 14.85 13.4855 15.0008 13.5144 15.1463C13.5434 15.2918 13.6148 15.4254 13.7197 15.5303C13.8246 15.6352 13.9582 15.7066 14.1037 15.7356C14.2492 15.7645 14.4 15.7497 14.537 15.6929C14.6741 15.6361 14.7912 15.54 14.8736 15.4167C14.956 15.2933 15 15.1483 15 15C15 14.8011 14.921 14.6103 14.7803 14.4697C14.6397 14.329 14.4489 14.25 14.25 14.25Z" fill="white"/>
<defs>
<linearGradient id="paint0_linear_8896_50414" x1="12" y1="-220.5" x2="12" y2="24" gradientUnits="userSpaceOnUse">
<stop stop-color="#FFA216"/>
<stop offset="1" stop-color="#1677FF"/>
</linearGradient>
</defs>
</svg>
