<svg width="24" height="24" viewBox="0 0 24 24" fill="none" xmlns="http://www.w3.org/2000/svg">
<rect width="24" height="24" rx="4" fill="#FF1677"/>
<path d="M7.12514 11.2499C7.12514 11.4488 7.20416 11.6396 7.34481 11.7803C7.48546 11.9209 7.67623 11.9999 7.87514 11.9999C8.07405 11.9999 8.26482 11.9209 8.40547 11.7803C8.54612 11.6396 8.62514 11.4488 8.62514 11.2499V7.05742L9.59264 8.03242C9.66236 8.10272 9.74531 8.15851 9.83671 8.19659C9.9281 8.23467 10.0261 8.25427 10.1251 8.25427C10.2241 8.25427 10.3222 8.23467 10.4136 8.19659C10.505 8.15851 10.5879 8.10272 10.6576 8.03242C10.7279 7.9627 10.7837 7.87975 10.8218 7.78835C10.8599 7.69696 10.8795 7.59893 10.8795 7.49992C10.8795 7.40091 10.8599 7.30288 10.8218 7.21149C10.7837 7.1201 10.7279 7.03714 10.6576 6.96742L8.40764 4.71742C8.33631 4.64914 8.2522 4.59562 8.16014 4.55992C7.97754 4.48491 7.77273 4.48491 7.59014 4.55992C7.49808 4.59562 7.41397 4.64914 7.34264 4.71742L5.09264 6.96742C4.95141 7.10865 4.87207 7.3002 4.87207 7.49992C4.87207 7.69965 4.95141 7.89119 5.09264 8.03242C5.23387 8.17365 5.42541 8.25299 5.62514 8.25299C5.82487 8.25299 6.01641 8.17365 6.15764 8.03242L7.12514 7.05742V11.2499ZM16.8751 7.49992H13.1251C12.9262 7.49992 12.7355 7.57894 12.5948 7.71959C12.4542 7.86024 12.3751 8.05101 12.3751 8.24992C12.3751 8.44883 12.4542 8.6396 12.5948 8.78025C12.7355 8.9209 12.9262 8.99992 13.1251 8.99992H16.8751C17.0741 8.99992 17.2648 9.07894 17.4055 9.21959C17.5461 9.36024 17.6251 9.55101 17.6251 9.74992V17.0399L16.4476 15.9524C16.3093 15.8229 16.1271 15.7506 15.9376 15.7499H9.37514C9.17623 15.7499 8.98546 15.6709 8.84481 15.5303C8.70416 15.3896 8.62514 15.1988 8.62514 14.9999V14.2499C8.62514 14.051 8.54612 13.8602 8.40547 13.7196C8.26482 13.5789 8.07405 13.4999 7.87514 13.4999C7.67623 13.4999 7.48546 13.5789 7.34481 13.7196C7.20416 13.8602 7.12514 14.051 7.12514 14.2499V14.9999C7.12514 15.5967 7.36219 16.169 7.78415 16.5909C8.20611 17.0129 8.7784 17.2499 9.37514 17.2499H15.6451L17.8951 19.2974C18.0335 19.4269 18.2157 19.4993 18.4051 19.4999C18.508 19.4988 18.6098 19.4785 18.7051 19.4399C18.8393 19.3814 18.9534 19.2848 19.0334 19.1622C19.1133 19.0396 19.1556 18.8963 19.1551 18.7499V9.74992C19.1552 9.45191 19.096 9.15685 18.981 8.8819C18.8661 8.60694 18.6977 8.35756 18.4856 8.14823C18.2734 7.9389 18.0218 7.7738 17.7454 7.66251C17.4689 7.55121 17.1731 7.49595 16.8751 7.49992Z" fill="white"/>
</svg>
