<svg width="24" height="24" viewBox="0 0 24 24" fill="none" xmlns="http://www.w3.org/2000/svg">
<rect width="24" height="24" rx="4" fill="#BD16FF"/>
<path d="M9.75 11.25C9.89834 11.25 10.0433 11.206 10.1667 11.1236C10.29 11.0412 10.3861 10.9241 10.4429 10.787C10.4997 10.65 10.5145 10.4992 10.4856 10.3537C10.4567 10.2082 10.3852 10.0746 10.2803 9.96967C10.1754 9.86478 10.0418 9.79335 9.89632 9.76441C9.75084 9.73547 9.60004 9.75032 9.46299 9.80709C9.32595 9.86386 9.20881 9.95999 9.1264 10.0833C9.04399 10.2067 9 10.3517 9 10.5C9 10.6989 9.07902 10.8897 9.21967 11.0303C9.36033 11.171 9.55109 11.25 9.75 11.25ZM12 4.5C10.5166 4.5 9.0666 4.93987 7.83323 5.76398C6.59986 6.58809 5.63856 7.75943 5.07091 9.12987C4.50325 10.5003 4.35472 12.0083 4.64411 13.4632C4.9335 14.918 5.64781 16.2544 6.6967 17.3033C7.7456 18.3522 9.08197 19.0665 10.5368 19.3559C11.9917 19.6453 13.4997 19.4968 14.8701 18.9291C16.2406 18.3614 17.4119 17.4001 18.236 16.1668C19.0601 14.9334 19.5 13.4834 19.5 12C19.5 11.0151 19.306 10.0398 18.9291 9.12987C18.5522 8.21993 17.9997 7.39314 17.3033 6.6967C16.6069 6.00026 15.7801 5.44781 14.8701 5.0709C13.9602 4.69399 12.9849 4.5 12 4.5ZM12 18C10.8133 18 9.65328 17.6481 8.66658 16.9888C7.67989 16.3295 6.91085 15.3925 6.45673 14.2961C6.0026 13.1997 5.88378 11.9933 6.11529 10.8295C6.3468 9.66557 6.91825 8.59647 7.75736 7.75736C8.59648 6.91824 9.66558 6.3468 10.8295 6.11529C11.9933 5.88378 13.1997 6.0026 14.2961 6.45672C15.3925 6.91085 16.3295 7.67988 16.9888 8.66658C17.6481 9.65327 18 10.8133 18 12C18 13.5913 17.3679 15.1174 16.2426 16.2426C15.1174 17.3679 13.5913 18 12 18ZM14.25 12.75H9.75C9.55109 12.75 9.36033 12.829 9.21967 12.9697C9.07902 13.1103 9 13.3011 9 13.5C9 14.2956 9.31607 15.0587 9.87868 15.6213C10.4413 16.1839 11.2044 16.5 12 16.5C12.7957 16.5 13.5587 16.1839 14.1213 15.6213C14.6839 15.0587 15 14.2956 15 13.5C15 13.3011 14.921 13.1103 14.7803 12.9697C14.6397 12.829 14.4489 12.75 14.25 12.75ZM12 15C11.737 14.9997 11.4786 14.9303 11.2509 14.7987C11.0231 14.667 10.834 14.4778 10.7025 14.25H13.2975C13.166 14.4778 12.9769 14.667 12.7491 14.7987C12.5214 14.9303 12.263 14.9997 12 15ZM14.25 9.75C14.1017 9.75 13.9567 9.79399 13.8333 9.8764C13.71 9.95881 13.6139 10.0759 13.5571 10.213C13.5003 10.35 13.4855 10.5008 13.5144 10.6463C13.5434 10.7918 13.6148 10.9254 13.7197 11.0303C13.8246 11.1352 13.9582 11.2067 14.1037 11.2356C14.2492 11.2645 14.4 11.2497 14.537 11.1929C14.6741 11.1361 14.7912 11.04 14.8736 10.9167C14.956 10.7933 15 10.6483 15 10.5C15 10.3011 14.921 10.1103 14.7803 9.96967C14.6397 9.82902 14.4489 9.75 14.25 9.75Z" fill="white"/>
</svg>
