<svg width="24" height="24" viewBox="0 0 24 24" fill="none" xmlns="http://www.w3.org/2000/svg">
<rect width="24" height="24" rx="4" fill="#399FFE"/>
<path d="M17.625 7.875H13.875C13.6761 7.875 13.4853 7.95402 13.3447 8.09467C13.204 8.23532 13.125 8.42609 13.125 8.625C13.125 8.82391 13.204 9.01468 13.3447 9.15533C13.4853 9.29598 13.6761 9.375 13.875 9.375H17.625C17.8239 9.375 18.0147 9.45402 18.1553 9.59467C18.296 9.73532 18.375 9.92609 18.375 10.125V17.415L17.1975 16.3275C17.0592 16.198 16.877 16.1257 16.6875 16.125H10.125C9.92609 16.125 9.73532 16.046 9.59467 15.9053C9.45402 15.7647 9.375 15.5739 9.375 15.375V13.875C9.375 13.6761 9.29598 13.4853 9.15533 13.3447C9.01468 13.204 8.82391 13.125 8.625 13.125C8.42609 13.125 8.23532 13.204 8.09467 13.3447C7.95402 13.4853 7.875 13.6761 7.875 13.875V15.375C7.875 15.9717 8.11205 16.544 8.53401 16.966C8.95597 17.3879 9.52826 17.625 10.125 17.625H16.395L18.645 19.6725C18.7833 19.802 18.9655 19.8743 19.155 19.875C19.2579 19.8739 19.3596 19.8535 19.455 19.815C19.5892 19.7565 19.7033 19.6599 19.7832 19.5373C19.8632 19.4147 19.9055 19.2714 19.905 19.125V10.125C19.905 9.82699 19.8458 9.53193 19.7309 9.25698C19.616 8.98202 19.4475 8.73264 19.2354 8.52331C19.0233 8.31398 18.7717 8.14888 18.4953 8.03758C18.2188 7.92629 17.923 7.87103 17.625 7.875ZM10.125 11.625C10.3624 11.6258 10.5965 11.5702 10.8082 11.4629C11.0199 11.3556 11.2031 11.1995 11.3428 11.0076C11.4824 10.8157 11.5745 10.5934 11.6116 10.3589C11.6486 10.1245 11.6294 9.88458 11.5557 9.65897C11.4819 9.43336 11.3557 9.22848 11.1874 9.06115C11.019 8.89382 10.8134 8.76883 10.5873 8.69645C10.3613 8.62407 10.1213 8.60637 9.88705 8.6448C9.65283 8.68323 9.43107 8.77669 9.24 8.9175L7.9275 8.3175L9.36 7.6575C9.58641 7.79495 9.84518 7.86999 10.11 7.875C10.4067 7.875 10.6967 7.78703 10.9434 7.62221C11.19 7.45738 11.3823 7.22312 11.4958 6.94903C11.6094 6.67494 11.6391 6.37334 11.5812 6.08237C11.5233 5.79139 11.3804 5.52412 11.1707 5.31434C10.9609 5.10456 10.6936 4.9617 10.4026 4.90382C10.1117 4.84594 9.81006 4.87565 9.53597 4.98918C9.26189 5.10271 9.02762 5.29497 8.8628 5.54165C8.69797 5.78832 8.61 6.07833 8.61 6.375L7.185 7.0275C6.9477 6.85827 6.66623 6.76184 6.375 6.75C5.97718 6.75 5.59564 6.90804 5.31434 7.18934C5.03304 7.47065 4.875 7.85218 4.875 8.25C4.875 8.64783 5.03304 9.02936 5.31434 9.31066C5.59564 9.59197 5.97718 9.75 6.375 9.75C6.61867 9.74755 6.85807 9.68577 7.0725 9.57L8.64 10.32C8.68728 10.6806 8.86393 11.0117 9.1371 11.2517C9.41027 11.4918 9.76134 11.6245 10.125 11.625Z" fill="white"/>
</svg>
