<svg width="24" height="24" viewBox="0 0 24 24" fill="none" xmlns="http://www.w3.org/2000/svg">
<rect width="24" height="24" rx="4" fill="#7F16FF"/>
<path d="M7.71775 10.725C7.59549 10.8478 7.51951 11.0091 7.50275 11.1816C7.48598 11.3541 7.52945 11.527 7.62578 11.6711C7.7221 11.8151 7.86534 11.9214 8.03113 11.9718C8.19693 12.0222 8.37506 12.0136 8.53525 11.9475C8.6264 11.9067 8.71006 11.851 8.78275 11.7825C8.85021 11.7134 8.90369 11.6319 8.94025 11.5425C8.98312 11.4511 9.00369 11.3509 9.00025 11.25C8.99942 11.0532 8.92131 10.8647 8.78275 10.725C8.71303 10.6547 8.63008 10.5989 8.53868 10.5608C8.44729 10.5228 8.34926 10.5032 8.25025 10.5032C8.15124 10.5032 8.05321 10.5228 7.96182 10.5608C7.87042 10.5989 7.78747 10.6547 7.71775 10.725ZM8.25025 6.75C8.44916 6.75 8.63993 6.82902 8.78058 6.96967C8.92123 7.11032 9.00025 7.30109 9.00025 7.5C9.00025 7.69891 8.92123 7.88968 8.78058 8.03033C8.63993 8.17098 8.44916 8.25 8.25025 8.25C8.05134 8.25 7.86057 8.32902 7.71992 8.46967C7.57927 8.61032 7.50025 8.80109 7.50025 9C7.50025 9.19891 7.57927 9.38968 7.71992 9.53033C7.86057 9.67098 8.05134 9.75 8.25025 9.75C8.64515 9.74975 9.03302 9.64557 9.3749 9.44793C9.71678 9.25029 10.0006 8.96615 10.1979 8.62406C10.3952 8.28198 10.499 7.89399 10.4988 7.4991C10.4987 7.1042 10.3946 6.7163 10.197 6.37438C9.99945 6.03245 9.71538 5.74854 9.37334 5.55117C9.0313 5.35381 8.64334 5.24994 8.24845 5.25C7.85355 5.25006 7.46563 5.35406 7.12365 5.55153C6.78168 5.74901 6.4977 6.03301 6.30025 6.375C6.25066 6.4606 6.2185 6.55517 6.20561 6.65325C6.19272 6.75133 6.19937 6.851 6.22516 6.9465C6.25095 7.04201 6.29539 7.13147 6.3559 7.20973C6.41641 7.28799 6.49181 7.3535 6.57775 7.4025C6.74996 7.50028 6.95386 7.52598 7.14495 7.47399C7.33604 7.422 7.49881 7.29655 7.59775 7.125C7.66383 7.01055 7.75898 6.91559 7.87356 6.84973C7.98814 6.78388 8.11809 6.74947 8.25025 6.75ZM17.2503 7.5H12.7503C12.5513 7.5 12.3606 7.57902 12.2199 7.71967C12.0793 7.86032 12.0003 8.05109 12.0003 8.25C12.0003 8.44891 12.0793 8.63968 12.2199 8.78033C12.3606 8.92098 12.5513 9 12.7503 9H17.2503C17.4492 9 17.6399 9.07902 17.7806 9.21967C17.9212 9.36032 18.0003 9.55109 18.0003 9.75V17.04L16.8228 15.9525C16.6844 15.823 16.5022 15.7507 16.3128 15.75H9.75025C9.55134 15.75 9.36057 15.671 9.21992 15.5303C9.07927 15.3897 9.00025 15.1989 9.00025 15V14.25C9.00025 14.0511 8.92123 13.8603 8.78058 13.7197C8.63993 13.579 8.44916 13.5 8.25025 13.5C8.05134 13.5 7.86057 13.579 7.71992 13.7197C7.57927 13.8603 7.50025 14.0511 7.50025 14.25V15C7.50025 15.5967 7.7373 16.169 8.15926 16.591C8.58122 17.0129 9.15351 17.25 9.75025 17.25H16.0203L18.2703 19.2975C18.4009 19.4202 18.5712 19.492 18.7503 19.5C18.8531 19.4989 18.9549 19.4785 19.0503 19.44C19.1844 19.3814 19.2985 19.2849 19.3785 19.1623C19.4584 19.0397 19.5008 18.8964 19.5003 18.75V9.75C19.5003 9.15326 19.2632 8.58097 18.8412 8.15901C18.4193 7.73705 17.847 7.5 17.2503 7.5Z" fill="white"/>
</svg>
