<svg width="24" height="24" viewBox="0 0 24 24" fill="none" xmlns="http://www.w3.org/2000/svg">
<rect width="24" height="24" rx="4" fill="#FFA216"/>
<path d="M12 4.5C10.5166 4.5 9.0666 4.93987 7.83323 5.76398C6.59986 6.58809 5.63856 7.75943 5.07091 9.12987C4.50325 10.5003 4.35472 12.0083 4.64411 13.4632C4.9335 14.918 5.64781 16.2544 6.6967 17.3033C7.7456 18.3522 9.08197 19.0665 10.5368 19.3559C11.9917 19.6453 13.4997 19.4968 14.8701 18.9291C16.2406 18.3614 17.4119 17.4001 18.236 16.1668C19.0601 14.9334 19.5 13.4834 19.5 12C19.5 11.0151 19.306 10.0398 18.9291 9.12987C18.5522 8.21993 17.9997 7.39314 17.3033 6.6967C16.6069 6.00026 15.7801 5.44781 14.8701 5.0709C13.9602 4.69399 12.9849 4.5 12 4.5ZM12 18C10.8133 18 9.65328 17.6481 8.66658 16.9888C7.67989 16.3295 6.91085 15.3925 6.45673 14.2961C6.0026 13.1997 5.88378 11.9933 6.11529 10.8295C6.3468 9.66557 6.91825 8.59647 7.75736 7.75736C8.59648 6.91824 9.66558 6.3468 10.8295 6.11529C11.9933 5.88378 13.1997 6.0026 14.2961 6.45672C15.3925 6.91085 16.3295 7.67988 16.9888 8.66658C17.6481 9.65327 18 10.8133 18 12C18 13.5913 17.3679 15.1174 16.2426 16.2426C15.1174 17.3679 13.5913 18 12 18ZM14.325 12.4725L12.75 11.565V8.25C12.75 8.05109 12.671 7.86032 12.5303 7.71967C12.3897 7.57902 12.1989 7.5 12 7.5C11.8011 7.5 11.6103 7.57902 11.4697 7.71967C11.329 7.86032 11.25 8.05109 11.25 8.25V12C11.25 12 11.25 12.06 11.25 12.09C11.2544 12.1417 11.2671 12.1923 11.2875 12.24C11.3029 12.2845 11.3231 12.3272 11.3475 12.3675C11.368 12.4101 11.3932 12.4504 11.4225 12.4875L11.5425 12.585L11.61 12.6525L13.56 13.7775C13.6743 13.8423 13.8036 13.8759 13.935 13.875C14.1011 13.8762 14.2628 13.8222 14.3949 13.7215C14.527 13.6208 14.6219 13.4792 14.6648 13.3187C14.7077 13.1583 14.6961 12.9882 14.6319 12.835C14.5677 12.6819 14.4545 12.5544 14.31 12.4725H14.325Z" fill="white"/>
</svg>
