<svg width="36" height="36" viewBox="0 0 36 36" fill="none" xmlns="http://www.w3.org/2000/svg">
<rect width="36" height="36" rx="8" fill="#0C6DF5"/>
<path d="M17.9997 10.5C17.0147 10.5 16.0395 10.694 15.1295 11.0709C14.2196 11.4478 13.3928 12.0003 12.6964 12.6967C11.2898 14.1032 10.4997 16.0109 10.4997 18C10.4931 19.7319 11.0927 21.4114 12.1947 22.7475L10.6947 24.2475C10.5906 24.353 10.5201 24.4869 10.4921 24.6324C10.464 24.7779 10.4797 24.9284 10.5372 25.065C10.5994 25.1999 10.7004 25.3133 10.8273 25.3908C10.9541 25.4682 11.1012 25.5063 11.2497 25.5H17.9997C19.9888 25.5 21.8964 24.7098 23.303 23.3033C24.7095 21.8968 25.4997 19.9891 25.4997 18C25.4997 16.0109 24.7095 14.1032 23.303 12.6967C21.8964 11.2902 19.9888 10.5 17.9997 10.5ZM17.9997 24H13.0572L13.7547 23.3025C13.8943 23.162 13.9727 22.9719 13.9727 22.7738C13.9727 22.5756 13.8943 22.3855 13.7547 22.245C12.7726 21.264 12.161 19.9729 12.0242 18.5916C11.8873 17.2103 12.2336 15.8243 13.0041 14.6696C13.7745 13.515 14.9215 12.6633 16.2495 12.2595C17.5776 11.8557 19.0045 11.9249 20.2873 12.4552C21.5701 12.9855 22.6293 13.9442 23.2845 15.1679C23.9397 16.3916 24.1503 17.8047 23.8805 19.1663C23.6107 20.5279 22.8771 21.7538 21.8048 22.6352C20.7325 23.5166 19.3877 23.9989 17.9997 24ZM20.2497 17.25H18.7497V15.75C18.7497 15.5511 18.6706 15.3603 18.53 15.2197C18.3893 15.079 18.1986 15 17.9997 15C17.8007 15 17.61 15.079 17.4693 15.2197C17.3287 15.3603 17.2497 15.5511 17.2497 15.75V17.25H15.7497C15.5507 17.25 15.36 17.329 15.2193 17.4697C15.0787 17.6103 14.9997 17.8011 14.9997 18C14.9997 18.1989 15.0787 18.3897 15.2193 18.5303C15.36 18.671 15.5507 18.75 15.7497 18.75H17.2497V20.25C17.2497 20.4489 17.3287 20.6397 17.4693 20.7803C17.61 20.921 17.8007 21 17.9997 21C18.1986 21 18.3893 20.921 18.53 20.7803C18.6706 20.6397 18.7497 20.4489 18.7497 20.25V18.75H20.2497C20.4486 18.75 20.6393 18.671 20.78 18.5303C20.9206 18.3897 20.9997 18.1989 20.9997 18C20.9997 17.8011 20.9206 17.6103 20.78 17.4697C20.6393 17.329 20.4486 17.25 20.2497 17.25Z" fill="white"/>
</svg>
