<svg width="24" height="24" viewBox="0 0 24 24" fill="none" xmlns="http://www.w3.org/2000/svg">
<path fill-rule="evenodd" clip-rule="evenodd" d="M19.68 12.1818C19.68 11.6145 19.6291 11.069 19.5345 10.5454H12V13.64H16.3055C16.12 14.64 15.5564 15.4872 14.7091 16.0545V18.0618H17.2945C18.8073 16.669 19.68 14.6181 19.68 12.1818Z" fill="#4285F4"/>
<path fill-rule="evenodd" clip-rule="evenodd" d="M12.0026 20C14.1626 20 15.9735 19.2837 17.2972 18.0618L14.7117 16.0546C13.9953 16.5346 13.079 16.8182 12.0026 16.8182C9.91897 16.8182 8.15533 15.4109 7.52624 13.52H4.85352V15.5927C6.16988 18.2073 8.87533 20 12.0026 20Z" fill="#34A853"/>
<path fill-rule="evenodd" clip-rule="evenodd" d="M7.52364 13.52C7.36364 13.04 7.27273 12.5272 7.27273 12C7.27273 11.4727 7.36364 10.96 7.52364 10.48V8.40723H4.85091C4.30909 9.48723 4 10.709 4 12C4 13.2909 4.30909 14.5127 4.85091 15.5927L7.52364 13.52Z" fill="#FBBC05"/>
<path fill-rule="evenodd" clip-rule="evenodd" d="M12.0026 7.18182C13.1772 7.18182 14.2317 7.58545 15.0608 8.37818L17.3553 6.08364C15.9699 4.79273 14.159 4 12.0026 4C8.87533 4 6.16988 5.79273 4.85352 8.40727L7.52624 10.48C8.15533 8.58909 9.91897 7.18182 12.0026 7.18182Z" fill="#EA4335"/>
</svg>
