<svg width="24" height="24" viewBox="0 0 24 24" fill="none" xmlns="http://www.w3.org/2000/svg">
<path d="M10.5006 3.72998C10.678 3.51617 10.8981 3.34169 11.1467 3.21766C11.3954 3.09362 11.6671 3.02276 11.9447 3.00959C12.2222 2.99642 12.4995 3.04122 12.7588 3.14115C13.018 3.24108 13.2536 3.39394 13.4506 3.58998C13.8115 3.96979 14.009 4.47608 14.0006 4.99998V8.40998C14.0006 8.67519 14.1059 8.92955 14.2935 9.11708C14.481 9.30462 14.7353 9.40998 15.0006 9.40998C15.2658 9.40998 15.5201 9.30462 15.7077 9.11708C15.8952 8.92955 16.0006 8.67519 16.0006 8.40998V4.99998C15.9777 4.19732 15.7138 3.42013 15.2432 2.76951C14.7725 2.1189 14.117 1.625 13.3618 1.35205C12.6066 1.07911 11.7868 1.03978 11.009 1.23916C10.2311 1.43854 9.53131 1.86742 9.00056 2.46998C8.88416 2.56205 8.78971 2.67889 8.72407 2.812C8.65844 2.94511 8.62325 3.09116 8.62107 3.23956C8.61888 3.38796 8.64976 3.53498 8.71146 3.66997C8.77316 3.80495 8.86412 3.92451 8.97777 4.01997C9.09141 4.11543 9.22487 4.18439 9.36848 4.22187C9.51209 4.25934 9.66224 4.26437 9.80803 4.23661C9.95383 4.20885 10.0916 4.14898 10.2114 4.06135C10.3312 3.97372 10.43 3.86052 10.5006 3.72998ZM18.7206 13.27H18.9206C19.1559 13.2743 19.3852 13.1954 19.5682 13.0472C19.7511 12.899 19.8759 12.6911 19.9206 12.46C19.9922 11.9768 20.019 11.4881 20.0006 11C20.0006 10.7348 19.8952 10.4804 19.7077 10.2929C19.5201 10.1053 19.2658 9.99998 19.0006 9.99998C18.7353 9.99998 18.481 10.1053 18.2935 10.2929C18.1059 10.4804 18.0006 10.7348 18.0006 11C18.0007 11.3694 17.9638 11.7379 17.8906 12.1C17.8662 12.2315 17.8686 12.3666 17.8974 12.4972C17.9262 12.6278 17.9809 12.7513 18.0583 12.8604C18.1357 12.9695 18.2342 13.062 18.3479 13.1323C18.4617 13.2027 18.5884 13.2495 18.7206 13.27ZM21.7206 19.33L3.72056 1.32998C3.6276 1.23625 3.51699 1.16186 3.39513 1.11109C3.27328 1.06032 3.14257 1.03418 3.01056 1.03418C2.87855 1.03418 2.74784 1.06032 2.62598 1.11109C2.50412 1.16186 2.39352 1.23625 2.30056 1.32998C2.11431 1.51734 2.00977 1.77079 2.00977 2.03498C2.00977 2.29916 2.11431 2.55262 2.30056 2.73998L8.00056 8.47998V11C8.00128 11.7018 8.18663 12.391 8.53799 12.9985C8.88936 13.606 9.39438 14.1104 10.0023 14.461C10.6103 14.8116 11.2998 14.9961 12.0016 14.9959C12.7034 14.9957 13.3928 14.8109 14.0006 14.46L15.4606 15.92C14.561 16.555 13.504 16.9301 12.4054 17.0044C11.3068 17.0787 10.2089 16.8493 9.23206 16.3412C8.25517 15.8332 7.43693 15.0661 6.86695 14.124C6.29697 13.1819 5.99723 12.1011 6.00056 11C6.00056 10.7348 5.8952 10.4804 5.70766 10.2929C5.52013 10.1053 5.26577 9.99998 5.00056 9.99998C4.73534 9.99998 4.48099 10.1053 4.29345 10.2929C4.10592 10.4804 4.00056 10.7348 4.00056 11C4.00232 12.9473 4.71428 14.8271 6.00296 16.2869C7.29163 17.7468 9.06854 18.6866 11.0006 18.93V21H9.00056C8.73534 21 8.48099 21.1053 8.29345 21.2929C8.10592 21.4804 8.00056 21.7348 8.00056 22C8.00056 22.2652 8.10592 22.5195 8.29345 22.7071C8.48099 22.8946 8.73534 23 9.00056 23H15.0006C15.2658 23 15.5201 22.8946 15.7077 22.7071C15.8952 22.5195 16.0006 22.2652 16.0006 22C16.0006 21.7348 15.8952 21.4804 15.7077 21.2929C15.5201 21.1053 15.2658 21 15.0006 21H13.0006V18.93C14.4034 18.7554 15.7333 18.2061 16.8506 17.34L20.2506 20.74C20.4375 20.9283 20.6917 21.0346 20.957 21.0355C21.2224 21.0365 21.4773 20.932 21.6656 20.745C21.8539 20.558 21.9602 20.3039 21.9611 20.0385C21.9621 19.7731 21.8575 19.5183 21.6706 19.33H21.7206ZM12.0006 13C11.4701 13 10.9614 12.7893 10.5863 12.4142C10.2113 12.0391 10.0006 11.5304 10.0006 11V10.48L12.4506 12.94C12.3038 12.9795 12.1525 12.9997 12.0006 13Z" fill="black"/>
</svg>
