<svg width="24" height="24" viewBox="0 0 24 24" fill="none" xmlns="http://www.w3.org/2000/svg">
<path d="M11.0702 6.12019C11.3734 6.03841 11.6862 5.99805 12.0002 6.00019C13.0611 6.00019 14.0785 6.42161 14.8286 7.17176C15.5788 7.9219 16.0002 8.93932 16.0002 10.0002V11.3402C16.0002 11.6054 16.1055 11.8598 16.2931 12.0473C16.4806 12.2348 16.735 12.3402 17.0002 12.3402C17.2654 12.3402 17.5198 12.2348 17.7073 12.0473C17.8948 11.8598 18.0002 11.6054 18.0002 11.3402V10.0002C17.9987 8.58331 17.4959 7.21265 16.5808 6.13096C15.6657 5.04927 14.3972 4.32633 13.0002 4.09019V3.00019C13.0002 2.73497 12.8948 2.48061 12.7073 2.29308C12.5198 2.10554 12.2654 2.00019 12.0002 2.00019C11.735 2.00019 11.4806 2.10554 11.2931 2.29308C11.1055 2.48061 11.0002 2.73497 11.0002 3.00019V4.10019L10.5502 4.18019C10.2929 4.24914 10.0736 4.41747 9.94044 4.64814C9.80729 4.87881 9.77123 5.15293 9.84019 5.41019C9.90914 5.66745 10.0775 5.88678 10.3081 6.01993C10.5388 6.15308 10.8129 6.18914 11.0702 6.12019ZM21.7102 20.2902L3.71019 2.29019C3.52188 2.10188 3.26649 1.99609 3.00019 1.99609C2.73388 1.99609 2.47849 2.10188 2.29019 2.29019C2.10188 2.47849 1.99609 2.73388 1.99609 3.00019C1.99609 3.26649 2.10188 3.52188 2.29019 3.71019L6.41019 7.82019C6.13921 8.51505 6.00017 9.25435 6.00019 10.0002V13.1802C5.41664 13.3865 4.91118 13.7683 4.55312 14.2731C4.19506 14.778 4.00192 15.3812 4.00019 16.0002V18.0002C4.00019 18.2654 4.10554 18.5198 4.29308 18.7073C4.48062 18.8948 4.73497 19.0002 5.00019 19.0002H8.14019C8.37047 19.8476 8.87319 20.5956 9.57078 21.1289C10.2684 21.6622 11.1221 21.9512 12.0002 21.9512C12.8783 21.9512 13.732 21.6622 14.4296 21.1289C15.1272 20.5956 15.6299 19.8476 15.8602 19.0002H17.5902L20.2902 21.7102C20.3831 21.8039 20.4937 21.8783 20.6156 21.9291C20.7375 21.9798 20.8682 22.006 21.0002 22.006C21.1322 22.006 21.2629 21.9798 21.3848 21.9291C21.5066 21.8783 21.6172 21.8039 21.7102 21.7102C21.8039 21.6172 21.8783 21.5066 21.9291 21.3848C21.9798 21.2629 22.006 21.1322 22.006 21.0002C22.006 20.8682 21.9798 20.7375 21.9291 20.6156C21.8783 20.4937 21.8039 20.3831 21.7102 20.2902ZM8.00019 10.0002C7.98493 9.81717 7.98493 9.6332 8.00019 9.45019L11.5902 13.0002H8.00019V10.0002ZM12.0002 20.0002C11.6512 19.9981 11.3088 19.9047 11.007 19.7292C10.7053 19.5538 10.4547 19.3025 10.2802 19.0002H13.7202C13.5457 19.3025 13.2951 19.5538 12.9934 19.7292C12.6916 19.9047 12.3492 19.9981 12.0002 20.0002ZM6.00019 17.0002V16.0002C6.00019 15.735 6.10554 15.4806 6.29308 15.2931C6.48062 15.1055 6.73497 15.0002 7.00019 15.0002H13.5902L15.5902 17.0002H6.00019Z" fill="black"/>
</svg>
