<svg width="24" height="24" viewBox="0 0 24 24" fill="none" xmlns="http://www.w3.org/2000/svg">
<path d="M4.90994 13.1002C5.00001 13.2443 5.12532 13.3631 5.27404 13.4453C5.42277 13.5275 5.58999 13.5705 5.75994 13.5702C5.94491 13.5755 6.12772 13.5293 6.28803 13.4369C6.44834 13.3445 6.57987 13.2094 6.66797 13.0467C6.75607 12.884 6.79729 12.7 6.78705 12.5152C6.7768 12.3305 6.71549 12.1522 6.60994 12.0002C5.30151 9.92204 4.45885 7.5851 4.13994 5.15017C4.11841 5.00582 4.12874 4.85851 4.1702 4.71858C4.21166 4.57865 4.28325 4.44949 4.37994 4.34017C4.47365 4.2335 4.589 4.14801 4.71832 4.08938C4.84764 4.03076 4.98795 4.00035 5.12994 4.00017H8.12994C8.36389 3.99545 8.59208 4.07292 8.7748 4.21909C8.95751 4.36527 9.08319 4.57089 9.12994 4.80017C9.12994 5.03017 9.20994 5.24017 9.25994 5.47017V5.60017C9.3763 6.12495 9.53344 6.63984 9.72994 7.14017L8.33994 7.80017C8.21983 7.856 8.11202 7.93515 8.02275 8.033C7.93349 8.13085 7.86455 8.24545 7.81994 8.37017C7.76905 8.49214 7.74286 8.623 7.74286 8.75517C7.74286 8.88733 7.76905 9.01819 7.81994 9.14017C7.91994 9.35017 8.01994 9.56017 8.13994 9.78017C8.20527 9.89475 8.29262 9.99528 8.39697 10.076C8.50132 10.1567 8.62059 10.2159 8.74794 10.2503C8.87528 10.2847 9.00816 10.2935 9.13894 10.2764C9.26972 10.2592 9.39581 10.2163 9.50994 10.1502C9.67335 10.0565 9.80698 9.91854 9.89544 9.75224C9.9839 9.58594 10.0236 9.39804 10.0099 9.21017L10.5799 9.00017C11.0323 8.79177 11.3907 8.42206 11.5849 7.96338C11.7791 7.5047 11.7952 6.99006 11.6299 6.52017C11.4685 6.09691 11.3381 5.66242 11.2399 5.22017V5.12017C11.2399 4.92017 11.1599 4.72017 11.1299 4.54017C11.02 3.83177 10.6601 3.18615 10.1153 2.72022C9.57045 2.2543 8.87681 1.99886 8.15994 2.00017H5.15994C4.73046 1.99392 4.30466 2.07996 3.91131 2.25248C3.51796 2.42501 3.16624 2.67998 2.87994 3.00017C2.59539 3.3235 2.38381 3.70432 2.25957 4.11673C2.13533 4.52913 2.10135 4.96346 2.15994 5.39017C2.50709 8.12908 3.44542 10.7598 4.90994 13.1002ZM19.5199 12.8902L18.9199 12.7802H18.8399C18.3875 12.6834 17.943 12.553 17.5099 12.3902C17.0473 12.2242 16.5397 12.2344 16.0841 12.4189C15.6286 12.6033 15.2568 12.9491 15.0399 13.3902L14.8299 13.8502C14.1478 13.4556 13.5049 12.9969 12.9099 12.4802L21.7099 3.69017C21.8032 3.59693 21.8771 3.48624 21.9276 3.36442C21.9781 3.24259 22.004 3.11203 22.004 2.98017C22.004 2.84831 21.9781 2.71774 21.9276 2.59592C21.8771 2.47409 21.8032 2.3634 21.7099 2.27017C21.6167 2.17693 21.506 2.10297 21.3842 2.05251C21.2624 2.00205 21.1318 1.97607 20.9999 1.97607C20.8681 1.97607 20.7375 2.00205 20.6157 2.05251C20.4939 2.10297 20.3832 2.17693 20.2899 2.27017L2.28994 20.2702C2.19621 20.3631 2.12182 20.4737 2.07105 20.5956C2.02028 20.7174 1.99414 20.8482 1.99414 20.9802C1.99414 21.1122 2.02028 21.2429 2.07105 21.3647C2.12182 21.4866 2.19621 21.5972 2.28994 21.6902C2.3829 21.7839 2.4935 21.8583 2.61536 21.9091C2.73722 21.9598 2.86793 21.986 2.99994 21.986C3.13195 21.986 3.26266 21.9598 3.38452 21.9091C3.50637 21.8583 3.61698 21.7839 3.70994 21.6902L8.29994 17.0902C11.1725 19.6714 14.7605 21.3206 18.5899 21.8202C18.7231 21.8301 18.8568 21.8301 18.9899 21.8202C19.726 21.824 20.4379 21.5571 20.9899 21.0702C21.3063 20.7872 21.559 20.4403 21.7314 20.0525C21.9038 19.6646 21.9919 19.2446 21.9899 18.8202V15.8202C21.9846 15.1204 21.7348 14.4444 21.2837 13.9094C20.8327 13.3743 20.2088 13.0138 19.5199 12.8902ZM19.9999 18.8902C19.9998 19.0322 19.9693 19.1725 19.9107 19.3018C19.8521 19.4311 19.7666 19.5465 19.6599 19.6402C19.5506 19.7369 19.4215 19.8084 19.2815 19.8499C19.1416 19.8914 18.9943 19.9017 18.8499 19.8802C15.4528 19.4356 12.2681 17.9792 9.70994 15.7002L11.4799 13.9302C12.4995 14.8189 13.6369 15.5626 14.8599 16.1402C14.9819 16.191 15.1128 16.2172 15.2449 16.2172C15.3771 16.2172 15.508 16.191 15.6299 16.1402C15.7547 16.0956 15.8693 16.0266 15.9671 15.9374C16.065 15.8481 16.1441 15.7403 16.1999 15.6202L16.8199 14.2102C17.3417 14.4037 17.8764 14.5608 18.4199 14.6802H18.5299L19.2199 14.8102C19.4455 14.861 19.6465 14.9884 19.7887 15.1707C19.931 15.353 20.0056 15.579 19.9999 15.8102V18.8902Z" fill="black"/>
</svg>
