<svg width="24" height="24" viewBox="0 0 24 24" fill="none" xmlns="http://www.w3.org/2000/svg">
<path fill-rule="evenodd" clip-rule="evenodd" d="M4.50701 10.9989C9.17133 8.96674 12.2816 7.62701 13.8379 6.97971C18.2812 5.13156 19.2045 4.81052 19.8063 4.79992C19.9387 4.79759 20.2346 4.83039 20.4263 4.98594C20.5882 5.11728 20.6327 5.29471 20.654 5.41924C20.6753 5.54377 20.7019 5.82745 20.6808 6.04911C20.44 8.57908 19.3981 14.7187 18.868 17.5523C18.6438 18.7513 18.2021 19.1533 17.7746 19.1927C16.8454 19.2782 16.1399 18.5786 15.24 17.9887C13.8318 17.0656 13.0362 16.491 11.6693 15.5902C10.0896 14.5492 11.1137 13.9771 12.0139 13.042C12.2495 12.7973 16.3434 9.07361 16.4226 8.73582C16.4325 8.69357 16.4417 8.53609 16.3482 8.45294C16.2546 8.36978 16.1165 8.39822 16.0169 8.42083C15.8757 8.45289 13.626 9.93981 9.26801 12.8816C8.62946 13.3201 8.05108 13.5337 7.53287 13.5225C6.96159 13.5102 5.86267 13.1995 5.04574 12.934C4.04373 12.6082 3.24736 12.436 3.31671 11.8829C3.35283 11.5948 3.7496 11.3001 4.50701 10.9989Z" fill="white"/>
</svg>
