<svg width="24" height="24" viewBox="0 0 24 24" fill="none" xmlns="http://www.w3.org/2000/svg">
<path d="M5.50019 10.9999C5.50019 11.2651 5.60554 11.5195 5.79308 11.707C5.98062 11.8945 6.23497 11.9999 6.50019 11.9999C6.7654 11.9999 7.01976 11.8945 7.20729 11.707C7.39483 11.5195 7.50019 11.2651 7.50019 10.9999V5.4099L8.79018 6.7099C8.88315 6.80363 8.99375 6.87802 9.11561 6.92879C9.23747 6.97956 9.36817 7.00569 9.50019 7.00569C9.6322 7.00569 9.7629 6.97956 9.88476 6.92879C10.0066 6.87802 10.1172 6.80363 10.2102 6.7099C10.3039 6.61693 10.3783 6.50633 10.4291 6.38447C10.4798 6.26261 10.506 6.13191 10.506 5.9999C10.506 5.86788 10.4798 5.73718 10.4291 5.61532C10.3783 5.49346 10.3039 5.38286 10.2102 5.2899L7.21019 2.2899C7.11508 2.19886 7.00294 2.12749 6.88019 2.0799C6.63672 1.97988 6.36365 1.97988 6.12019 2.0799C5.99743 2.12749 5.88529 2.19886 5.79019 2.2899L2.79019 5.2899C2.60188 5.4782 2.49609 5.73359 2.49609 5.9999C2.49609 6.2662 2.60188 6.52159 2.79019 6.7099C2.97849 6.8982 3.23388 7.00399 3.50019 7.00399C3.76649 7.00399 4.02188 6.8982 4.21019 6.7099L5.50019 5.4099V10.9999ZM18.5002 5.9999H13.5002C13.235 5.9999 12.9806 6.10525 12.7931 6.29279C12.6055 6.48033 12.5002 6.73468 12.5002 6.9999C12.5002 7.26511 12.6055 7.51947 12.7931 7.707C12.9806 7.89454 13.235 7.9999 13.5002 7.9999H18.5002C18.7654 7.9999 19.0198 8.10525 19.2073 8.29279C19.3948 8.48033 19.5002 8.73468 19.5002 8.9999V18.7199L17.9302 17.2699C17.7458 17.0972 17.5028 17.0008 17.2502 16.9999H8.50019C8.23497 16.9999 7.98061 16.8945 7.79308 16.707C7.60554 16.5195 7.50019 16.2651 7.50019 15.9999V14.9999C7.50019 14.7347 7.39483 14.4803 7.20729 14.2928C7.01976 14.1053 6.7654 13.9999 6.50019 13.9999C6.23497 13.9999 5.98062 14.1053 5.79308 14.2928C5.60554 14.4803 5.50019 14.7347 5.50019 14.9999V15.9999C5.50019 16.7955 5.81626 17.5586 6.37887 18.1212C6.94147 18.6838 7.70454 18.9999 8.50019 18.9999H16.8602L19.8602 21.7299C20.0446 21.9026 20.2876 21.999 20.5402 21.9999C20.6773 21.9984 20.813 21.9713 20.9402 21.9199C21.1191 21.8418 21.2712 21.7131 21.3778 21.5496C21.4844 21.3862 21.5409 21.1951 21.5402 20.9999V8.9999C21.5402 8.60254 21.4613 8.20914 21.3081 7.84253C21.1548 7.47592 20.9302 7.14341 20.6474 6.86431C20.3646 6.5852 20.0291 6.36506 19.6605 6.21667C19.2919 6.06828 18.8975 5.9946 18.5002 5.9999Z" fill="black"/>
</svg>
